<mxfile host="app.diagrams.net" modified="2020-08-21T19:36:50.887Z" agent="5.0 (Windows)" etag="ZDZqn46sZ07TlWmBsSbY" version="13.6.4" type="github">
  <diagram id="C5RBs43oDa-KdzZeNtuy" name="Page-1">
    <mxGraphModel dx="862" dy="451" grid="1" gridSize="10" guides="1" tooltips="1" connect="1" arrows="1" fold="1" page="1" pageScale="1" pageWidth="827" pageHeight="1169" math="0" shadow="0">
      <root>
        <mxCell id="WIyWlLk6GJQsqaUBKTNV-0" />
        <mxCell id="WIyWlLk6GJQsqaUBKTNV-1" parent="WIyWlLk6GJQsqaUBKTNV-0" />
        <mxCell id="1gnUhG1yIO8Gd4Vw352w-92" value="Calculadora" style="swimlane;fontStyle=1;childLayout=stackLayout;horizontal=1;startSize=26;fillColor=none;horizontalStack=0;resizeParent=1;resizeParentMax=0;resizeLast=0;collapsible=1;marginBottom=0;" vertex="1" parent="WIyWlLk6GJQsqaUBKTNV-1">
          <mxGeometry x="241" y="150" width="150" height="164" as="geometry" />
        </mxCell>
        <mxCell id="1gnUhG1yIO8Gd4Vw352w-93" value="+num1 : int" style="text;strokeColor=none;fillColor=none;align=left;verticalAlign=top;spacingLeft=4;spacingRight=4;overflow=hidden;rotatable=0;points=[[0,0.5],[1,0.5]];portConstraint=eastwest;" vertex="1" parent="1gnUhG1yIO8Gd4Vw352w-92">
          <mxGeometry y="26" width="150" height="26" as="geometry" />
        </mxCell>
        <mxCell id="1gnUhG1yIO8Gd4Vw352w-94" value="+num2 : int" style="text;strokeColor=none;fillColor=none;align=left;verticalAlign=top;spacingLeft=4;spacingRight=4;overflow=hidden;rotatable=0;points=[[0,0.5],[1,0.5]];portConstraint=eastwest;" vertex="1" parent="1gnUhG1yIO8Gd4Vw352w-92">
          <mxGeometry y="52" width="150" height="30" as="geometry" />
        </mxCell>
        <mxCell id="1gnUhG1yIO8Gd4Vw352w-95" value="+resultado : int&#xa;+operação : int&#xa;&#xa;&#xa;+acao (Operacao op): int&#xa;" style="text;strokeColor=none;fillColor=none;align=left;verticalAlign=top;spacingLeft=4;spacingRight=4;overflow=hidden;rotatable=0;points=[[0,0.5],[1,0.5]];portConstraint=eastwest;" vertex="1" parent="1gnUhG1yIO8Gd4Vw352w-92">
          <mxGeometry y="82" width="150" height="82" as="geometry" />
        </mxCell>
        <mxCell id="1gnUhG1yIO8Gd4Vw352w-106" value="Operacao" style="swimlane;fontStyle=1;childLayout=stackLayout;horizontal=1;startSize=26;fillColor=none;horizontalStack=0;resizeParent=1;resizeParentMax=0;resizeLast=0;collapsible=1;marginBottom=0;" vertex="1" parent="WIyWlLk6GJQsqaUBKTNV-1">
          <mxGeometry x="414" y="150" width="150" height="164" as="geometry" />
        </mxCell>
        <mxCell id="1gnUhG1yIO8Gd4Vw352w-107" value="+num1 : int" style="text;strokeColor=none;fillColor=none;align=left;verticalAlign=top;spacingLeft=4;spacingRight=4;overflow=hidden;rotatable=0;points=[[0,0.5],[1,0.5]];portConstraint=eastwest;" vertex="1" parent="1gnUhG1yIO8Gd4Vw352w-106">
          <mxGeometry y="26" width="150" height="26" as="geometry" />
        </mxCell>
        <mxCell id="1gnUhG1yIO8Gd4Vw352w-108" value="+num2 : int" style="text;strokeColor=none;fillColor=none;align=left;verticalAlign=top;spacingLeft=4;spacingRight=4;overflow=hidden;rotatable=0;points=[[0,0.5],[1,0.5]];portConstraint=eastwest;" vertex="1" parent="1gnUhG1yIO8Gd4Vw352w-106">
          <mxGeometry y="52" width="150" height="30" as="geometry" />
        </mxCell>
        <mxCell id="1gnUhG1yIO8Gd4Vw352w-109" value="+resultado : int&#xa;&#xa;&#xa;+calculo() : void&#xa;" style="text;strokeColor=none;fillColor=none;align=left;verticalAlign=top;spacingLeft=4;spacingRight=4;overflow=hidden;rotatable=0;points=[[0,0.5],[1,0.5]];portConstraint=eastwest;" vertex="1" parent="1gnUhG1yIO8Gd4Vw352w-106">
          <mxGeometry y="82" width="150" height="82" as="geometry" />
        </mxCell>
      </root>
    </mxGraphModel>
  </diagram>
</mxfile>
